<?xml version="1.0" standalone="no"?>
<!DOCTYPE svg PUBLIC "-//W3C//DTD SVG 20010904//EN"
 "http://www.w3.org/TR/2001/REC-SVG-20010904/DTD/svg10.dtd">
<svg version="1.0" xmlns="http://www.w3.org/2000/svg"
 width="463.000000pt" height="539.000000pt" viewBox="0 0 463.000000 539.000000"
 preserveAspectRatio="xMidYMid meet">
<metadata>
Created by potrace 1.16, written by Peter Selinger 2001-2019
</metadata>
<g transform="translate(0.000000,539.000000) scale(0.100000,-0.100000)"
fill="#000000" stroke="none">
<path d="M2541 5263 c-15 -16 -50 -74 -77 -130 -27 -56 -52 -102 -56 -102 -5
-1 -8 11 -8 25 0 41 -50 84 -98 84 -53 0 -73 -19 -122 -117 -63 -128 -72 -158
-77 -284 l-6 -117 -50 -23 c-196 -91 -429 -283 -575 -474 -46 -62 -48 -62
-105 -68 -75 -7 -154 -46 -204 -100 -22 -24 -42 -49 -44 -55 -3 -8 -48 -8
-170 -1 -252 15 -251 16 -250 -224 1 -159 1 -166 -25 -216 -34 -64 -41 -160
-25 -298 14 -112 59 -269 95 -328 l24 -39 -86 -48 c-296 -166 -470 -405 -554
-762 -33 -137 -32 -419 1 -566 45 -203 128 -387 253 -565 82 -117 278 -312
398 -397 527 -373 1290 -461 2005 -231 341 110 662 311 852 534 298 350 402
715 327 1152 -4 24 -3 37 4 37 7 0 51 19 99 42 142 67 239 181 278 329 8 30
15 69 15 86 0 30 5 35 69 68 76 38 101 65 101 107 0 62 -12 72 -267 228 l-248
152 -1 172 c-1 192 -17 286 -77 462 -64 187 -136 320 -253 470 -106 137 -228
242 -453 392 -113 75 -230 159 -259 186 -132 124 -224 304 -253 496 -18 119
-42 150 -114 150 -27 0 -44 -8 -64 -27z m105 -572 c41 -82 62 -110 160 -210
63 -64 127 -125 144 -136 16 -11 30 -23 30 -26 0 -4 -24 -14 -52 -24 -81 -26
-202 -114 -317 -229 l-104 -105 -122 6 -122 6 -6 -48 c-14 -96 -12 -103 35
-116 l42 -11 -24 -19 c-46 -35 -155 -86 -209 -99 -77 -18 -175 -8 -237 23 -28
14 -84 54 -125 88 -41 34 -99 78 -129 98 -30 19 -57 36 -59 38 -7 5 111 155
177 224 128 135 337 275 509 340 l82 31 -15 37 c-20 48 -35 138 -27 169 5 22
8 19 35 -30 35 -65 106 -139 173 -183 43 -27 171 -85 189 -85 3 0 -14 37 -38
83 -60 110 -76 172 -76 281 0 133 11 159 26 66 9 -50 28 -105 60 -169z m426
-478 c42 -25 77 -100 90 -193 7 -44 10 -81 7 -83 -6 -5 -533 14 -539 20 -7 7
124 130 193 182 60 46 157 90 195 91 13 0 37 -8 54 -17z m255 -186 c206 -217
314 -418 357 -662 20 -109 33 -330 20 -323 -103 56 -281 172 -319 209 -52 49
-102 79 -131 79 -13 0 -15 6 -10 32 4 18 9 79 13 135 l6 101 33 -5 c19 -3 34
-4 34 -2 0 2 9 72 20 154 27 203 31 185 -40 185 -67 0 -57 -15 -78 127 -10 77
-5 75 95 -30z m-1858 -142 c39 -13 96 -50 151 -95 l25 -21 -165 7 c-91 4 -185
9 -209 13 l-45 6 34 39 c57 65 124 81 209 51z m1371 -195 c179 -38 335 -72
348 -75 21 -5 22 -9 22 -139 l0 -134 -82 18 c-80 18 -198 46 -692 165 -147 36
-240 54 -258 50 -30 -7 -75 -54 -83 -88 -6 -20 -12 -22 -90 -22 l-84 0 -5 31
c-4 17 -20 43 -36 59 -40 39 -100 46 -225 29 -104 -15 -439 -53 -441 -51 -1 1
-5 16 -8 33 l-7 31 63 6 c35 3 149 14 255 23 l192 18 3 28 3 29 35 -27 c60
-45 149 -82 215 -89 135 -15 294 39 423 143 58 46 66 49 95 41 18 -5 178 -40
357 -79z m-1013 -184 c15 -13 26 -27 22 -30 -3 -3 -90 -17 -195 -30 -202 -27
-493 -66 -663 -90 -57 -8 -105 -17 -108 -19 -8 -9 28 -190 51 -251 29 -75 75
-166 115 -226 38 -55 39 -76 6 -82 -33 -7 -75 24 -124 90 -71 94 -112 237
-114 399 -2 98 -1 104 24 128 31 32 48 34 474 76 176 17 345 37 375 44 82 19
106 18 137 -9z m631 -60 c119 -30 325 -80 457 -111 328 -78 373 -92 404 -123
25 -26 25 -27 5 -30 -11 -2 -99 17 -195 42 -255 66 -619 144 -822 177 -92 14
-92 14 -104 -71 -12 -83 -7 -207 12 -280 9 -36 18 -74 21 -86 7 -26 -43 -54
-58 -32 -15 24 -39 113 -48 182 -12 92 16 342 42 373 17 21 59 15 286 -41z
m-393 -48 c2 -2 -1 -54 -7 -117 -13 -136 0 -254 38 -338 29 -66 30 -65 -86
-115 -92 -39 -171 -43 -241 -13 l-47 19 55 61 c99 110 163 281 163 439 0 59 2
65 23 69 22 5 96 2 102 -5z m1550 -363 c83 -51 219 -134 302 -185 84 -51 151
-95 149 -98 -2 -2 -13 1 -25 7 -11 6 -48 14 -83 18 -57 6 -80 17 -246 115
l-183 109 -20 -25 -20 -25 -45 22 c-42 20 -45 24 -39 52 3 16 9 51 12 77 7 56
-14 63 198 -67z m-97 -126 c8 11 18 21 23 21 10 0 259 -148 277 -165 11 -10 8
-14 -18 -25 -43 -18 -118 -104 -131 -152 -5 -22 -8 -42 -6 -44 2 -3 23 17 45
44 104 124 259 145 368 49 67 -59 94 -120 94 -209 0 -159 -101 -277 -283 -333
l-72 -22 -56 99 c-77 133 -115 182 -207 270 -90 86 -166 140 -272 193 -41 20
-77 39 -79 41 -3 3 9 19 26 37 36 38 102 135 132 195 l21 42 62 -31 62 -31 14
21z m-1935 -102 c84 -41 170 -80 192 -87 94 -31 217 -8 346 66 145 84 165 94
192 94 15 0 30 -6 32 -12 2 -7 9 -75 14 -152 5 -76 15 -144 20 -149 8 -8 11
-7 11 2 0 33 197 88 350 97 493 30 923 -291 1051 -782 33 -128 33 -340 0 -469
-44 -171 -120 -329 -217 -455 -324 -423 -857 -663 -1524 -687 -352 -12 -690
58 -970 202 -436 226 -735 621 -794 1053 -20 139 -20 218 -1 347 33 236 116
407 269 561 177 177 396 271 652 281 l131 6 8 -39 c10 -56 21 -26 29 79 8 105
12 117 38 117 10 0 87 -33 171 -73z"/>
<path d="M3871 2501 c-29 -10 -65 -30 -79 -45 -30 -30 -21 -33 32 -11 32 14
39 14 59 0 13 -8 27 -12 30 -9 4 4 9 0 12 -8 5 -13 -8 -52 -33 -100 -2 -5 3
-8 11 -8 8 0 27 14 42 32 23 27 26 39 22 75 -5 47 8 56 37 27 20 -20 20 -67 0
-105 -21 -41 -8 -51 21 -16 51 59 40 147 -21 173 -43 18 -68 17 -133 -5z"/>
<path d="M2190 2760 c-25 -16 -66 -37 -93 -47 -74 -27 -53 -38 69 -38 l109 0
3 34 c5 49 -6 81 -26 81 -9 0 -37 -14 -62 -30z"/>
<path d="M1797 2593 c-58 -86 -118 -272 -137 -426 -15 -113 -9 -327 10 -372
l13 -30 7 26 c4 14 13 79 19 145 15 152 45 331 76 459 38 158 53 235 45 235
-4 0 -19 -17 -33 -37z"/>
<path d="M3261 2156 c-22 -26 -36 -121 -24 -170 7 -32 7 -46 -1 -50 -329 -137
-547 -207 -796 -255 -555 -108 -1158 -59 -1677 135 -122 46 -207 88 -303 153
-41 27 -76 48 -79 45 -8 -7 59 -73 129 -126 200 -153 647 -299 1034 -337 140
-14 438 -14 586 0 352 32 787 166 1040 320 l80 48 20 -40 c47 -92 150 -173
212 -167 l33 3 -67 71 c-94 101 -132 185 -153 337 -6 49 -14 57 -34 33z"/>
<path d="M1370 891 c0 -18 75 -71 127 -91 121 -45 245 -46 363 -1 57 21 134
77 125 91 -2 4 -46 -3 -97 -17 -68 -17 -120 -24 -195 -24 -115 0 -150 5 -242
32 -72 22 -81 23 -81 10z"/>
</g>
</svg>
